<mxfile><diagram id="8Fe6mhlW3liyKCOZ1bdO" name="Page-1"><mxGraphModel dx="749" dy="672" grid="1" gridSize="10" guides="1" tooltips="1" connect="1" arrows="1" fold="1" page="1" pageScale="1" pageWidth="850" pageHeight="1100" math="0" shadow="0"><root><mxCell id="0"/><mxCell id="1" parent="0"/><mxCell id="13" style="edgeStyle=orthogonalEdgeStyle;html=1;entryX=0.5;entryY=0;entryDx=0;entryDy=0;shape=link;shadow=1;rounded=0;" edge="1" parent="1" source="2" target="7"><mxGeometry relative="1" as="geometry"><Array as="points"><mxPoint x="1000" y="420"/></Array></mxGeometry></mxCell><mxCell id="2" value="Sede" style="swimlane;fontStyle=0;childLayout=stackLayout;horizontal=1;startSize=30;horizontalStack=0;resizeParent=1;resizeParentMax=0;resizeLast=0;collapsible=1;marginBottom=0;whiteSpace=wrap;html=1;shadow=1;rounded=0;" vertex="1" parent="1"><mxGeometry x="710" y="360" width="160" height="150" as="geometry"><mxRectangle x="270" y="330" width="60" height="30" as="alternateBounds"/></mxGeometry></mxCell><mxCell id="3" value="idSede varchar (11)" style="text;strokeColor=none;fillColor=none;align=left;verticalAlign=middle;spacingLeft=4;spacingRight=4;overflow=hidden;points=[[0,0.5],[1,0.5]];portConstraint=eastwest;rotatable=0;whiteSpace=wrap;html=1;shadow=1;rounded=0;" vertex="1" parent="2"><mxGeometry y="30" width="160" height="30" as="geometry"/></mxCell><mxCell id="4" value="nombreSede varchar (30)" style="text;strokeColor=none;fillColor=none;align=left;verticalAlign=middle;spacingLeft=4;spacingRight=4;overflow=hidden;points=[[0,0.5],[1,0.5]];portConstraint=eastwest;rotatable=0;whiteSpace=wrap;html=1;shadow=1;rounded=0;" vertex="1" parent="2"><mxGeometry y="60" width="160" height="30" as="geometry"/></mxCell><mxCell id="6" value="direccionSede varchar(255)" style="text;strokeColor=none;fillColor=none;align=left;verticalAlign=middle;spacingLeft=4;spacingRight=4;overflow=hidden;points=[[0,0.5],[1,0.5]];portConstraint=eastwest;rotatable=0;whiteSpace=wrap;html=1;shadow=1;rounded=0;" vertex="1" parent="2"><mxGeometry y="90" width="160" height="30" as="geometry"/></mxCell><mxCell id="45" value="idPais_fk varchar(10)" style="text;strokeColor=none;fillColor=none;align=left;verticalAlign=middle;spacingLeft=4;spacingRight=4;overflow=hidden;points=[[0,0.5],[1,0.5]];portConstraint=eastwest;rotatable=0;whiteSpace=wrap;html=1;shadow=1;rounded=0;" vertex="1" parent="2"><mxGeometry y="120" width="160" height="30" as="geometry"/></mxCell><mxCell id="7" value="Tipo_Sede" style="swimlane;fontStyle=0;childLayout=stackLayout;horizontal=1;startSize=30;horizontalStack=0;resizeParent=1;resizeParentMax=0;resizeLast=0;collapsible=1;marginBottom=0;whiteSpace=wrap;html=1;shadow=1;rounded=0;" vertex="1" parent="1"><mxGeometry x="930" y="530" width="140" height="90" as="geometry"><mxRectangle x="270" y="330" width="60" height="30" as="alternateBounds"/></mxGeometry></mxCell><mxCell id="8" value="idTipoSede int (10)" style="text;strokeColor=none;fillColor=none;align=left;verticalAlign=middle;spacingLeft=4;spacingRight=4;overflow=hidden;points=[[0,0.5],[1,0.5]];portConstraint=eastwest;rotatable=0;whiteSpace=wrap;html=1;shadow=1;rounded=0;" vertex="1" parent="7"><mxGeometry y="30" width="140" height="30" as="geometry"/></mxCell><mxCell id="9" value="descripcion varchar (30)" style="text;strokeColor=none;fillColor=none;align=left;verticalAlign=middle;spacingLeft=4;spacingRight=4;overflow=hidden;points=[[0,0.5],[1,0.5]];portConstraint=eastwest;rotatable=0;whiteSpace=wrap;html=1;shadow=1;rounded=0;" vertex="1" parent="7"><mxGeometry y="60" width="140" height="30" as="geometry"/></mxCell><mxCell id="15" value="M" style="text;html=1;strokeColor=none;fillColor=none;align=center;verticalAlign=middle;whiteSpace=wrap;rounded=0;shadow=1;fontStyle=1" vertex="1" parent="1"><mxGeometry x="880" y="390" width="55" height="20" as="geometry"/></mxCell><mxCell id="16" value="1" style="text;html=1;strokeColor=none;fillColor=none;align=center;verticalAlign=middle;whiteSpace=wrap;rounded=0;shadow=1;fontStyle=1" vertex="1" parent="1"><mxGeometry x="1000" y="510" width="55" height="20" as="geometry"/></mxCell><mxCell id="30" style="edgeStyle=orthogonalEdgeStyle;shape=link;rounded=0;sketch=0;html=1;entryX=0.5;entryY=0;entryDx=0;entryDy=0;shadow=1;" edge="1" parent="1" source="17" target="23"><mxGeometry relative="1" as="geometry"/></mxCell><mxCell id="39" style="edgeStyle=orthogonalEdgeStyle;shape=link;rounded=0;sketch=0;html=1;entryX=0;entryY=0.5;entryDx=0;entryDy=0;shadow=1;" edge="1" parent="1" source="17" target="3"><mxGeometry relative="1" as="geometry"/></mxCell><mxCell id="17" value="Pais" style="swimlane;fontStyle=0;childLayout=stackLayout;horizontal=1;startSize=26;fillColor=none;horizontalStack=0;resizeParent=1;resizeParentMax=0;resizeLast=0;collapsible=1;marginBottom=0;html=1;shadow=1;" vertex="1" parent="1"><mxGeometry x="350" y="366" width="180" height="78" as="geometry"/></mxCell><mxCell id="18" value="idPais int (10)" style="text;strokeColor=none;fillColor=none;align=left;verticalAlign=top;spacingLeft=4;spacingRight=4;overflow=hidden;rotatable=0;points=[[0,0.5],[1,0.5]];portConstraint=eastwest;whiteSpace=wrap;html=1;shadow=1;" vertex="1" parent="17"><mxGeometry y="26" width="180" height="26" as="geometry"/></mxCell><mxCell id="19" value="nombrePais varchar (30)" style="text;strokeColor=none;fillColor=none;align=left;verticalAlign=top;spacingLeft=4;spacingRight=4;overflow=hidden;rotatable=0;points=[[0,0.5],[1,0.5]];portConstraint=eastwest;whiteSpace=wrap;html=1;shadow=1;" vertex="1" parent="17"><mxGeometry y="52" width="180" height="26" as="geometry"/></mxCell><mxCell id="31" style="edgeStyle=orthogonalEdgeStyle;shape=link;rounded=0;sketch=0;html=1;shadow=1;" edge="1" parent="1" source="23" target="26"><mxGeometry relative="1" as="geometry"/></mxCell><mxCell id="23" value="Estado" style="swimlane;fontStyle=0;childLayout=stackLayout;horizontal=1;startSize=26;fillColor=none;horizontalStack=0;resizeParent=1;resizeParentMax=0;resizeLast=0;collapsible=1;marginBottom=0;html=1;shadow=1;" vertex="1" parent="1"><mxGeometry x="350" y="561" width="180" height="104" as="geometry"/></mxCell><mxCell id="24" value="idEstado int (10)" style="text;strokeColor=none;fillColor=none;align=left;verticalAlign=top;spacingLeft=4;spacingRight=4;overflow=hidden;rotatable=0;points=[[0,0.5],[1,0.5]];portConstraint=eastwest;whiteSpace=wrap;html=1;shadow=1;" vertex="1" parent="23"><mxGeometry y="26" width="180" height="26" as="geometry"/></mxCell><mxCell id="25" value="nombreEstado varchar (30)" style="text;strokeColor=none;fillColor=none;align=left;verticalAlign=top;spacingLeft=4;spacingRight=4;overflow=hidden;rotatable=0;points=[[0,0.5],[1,0.5]];portConstraint=eastwest;whiteSpace=wrap;html=1;shadow=1;" vertex="1" parent="23"><mxGeometry y="52" width="180" height="26" as="geometry"/></mxCell><mxCell id="41" value="idPais_fk int (10)" style="text;strokeColor=none;fillColor=none;align=left;verticalAlign=top;spacingLeft=4;spacingRight=4;overflow=hidden;rotatable=0;points=[[0,0.5],[1,0.5]];portConstraint=eastwest;whiteSpace=wrap;html=1;shadow=1;" vertex="1" parent="23"><mxGeometry y="78" width="180" height="26" as="geometry"/></mxCell><mxCell id="26" value="Region" style="swimlane;fontStyle=0;childLayout=stackLayout;horizontal=1;startSize=26;fillColor=none;horizontalStack=0;resizeParent=1;resizeParentMax=0;resizeLast=0;collapsible=1;marginBottom=0;html=1;shadow=1;" vertex="1" parent="1"><mxGeometry x="350" y="758" width="180" height="104" as="geometry"/></mxCell><mxCell id="27" value="idRegion int (10)" style="text;strokeColor=none;fillColor=none;align=left;verticalAlign=top;spacingLeft=4;spacingRight=4;overflow=hidden;rotatable=0;points=[[0,0.5],[1,0.5]];portConstraint=eastwest;whiteSpace=wrap;html=1;shadow=1;" vertex="1" parent="26"><mxGeometry y="26" width="180" height="26" as="geometry"/></mxCell><mxCell id="28" value="nombreRegion varchar (30)" style="text;strokeColor=none;fillColor=none;align=left;verticalAlign=top;spacingLeft=4;spacingRight=4;overflow=hidden;rotatable=0;points=[[0,0.5],[1,0.5]];portConstraint=eastwest;whiteSpace=wrap;html=1;shadow=1;" vertex="1" parent="26"><mxGeometry y="52" width="180" height="26" as="geometry"/></mxCell><mxCell id="44" value="idEstado_fk int (10)" style="text;strokeColor=none;fillColor=none;align=left;verticalAlign=top;spacingLeft=4;spacingRight=4;overflow=hidden;rotatable=0;points=[[0,0.5],[1,0.5]];portConstraint=eastwest;whiteSpace=wrap;html=1;shadow=1;" vertex="1" parent="26"><mxGeometry y="78" width="180" height="26" as="geometry"/></mxCell><mxCell id="32" value="1" style="text;html=1;strokeColor=none;fillColor=none;align=center;verticalAlign=middle;whiteSpace=wrap;rounded=0;shadow=1;fontStyle=1" vertex="1" parent="1"><mxGeometry x="430" y="444" width="60" height="22" as="geometry"/></mxCell><mxCell id="33" value="m" style="text;html=1;strokeColor=none;fillColor=none;align=center;verticalAlign=middle;whiteSpace=wrap;rounded=0;shadow=1;fontStyle=1" vertex="1" parent="1"><mxGeometry x="430" y="736" width="60" height="22" as="geometry"/></mxCell><mxCell id="34" value="m" style="text;html=1;strokeColor=none;fillColor=none;align=center;verticalAlign=middle;whiteSpace=wrap;rounded=0;shadow=1;fontStyle=1" vertex="1" parent="1"><mxGeometry x="430" y="539" width="60" height="22" as="geometry"/></mxCell><mxCell id="35" value="1" style="text;html=1;strokeColor=none;fillColor=none;align=center;verticalAlign=middle;whiteSpace=wrap;rounded=0;shadow=1;fontStyle=1" vertex="1" parent="1"><mxGeometry x="430" y="665" width="60" height="22" as="geometry"/></mxCell><mxCell id="42" value="1" style="text;html=1;strokeColor=none;fillColor=none;align=center;verticalAlign=middle;whiteSpace=wrap;rounded=0;shadow=1;fontStyle=1" vertex="1" parent="1"><mxGeometry x="520" y="409" width="60" height="22" as="geometry"/></mxCell><mxCell id="43" value="m" style="text;html=1;strokeColor=none;fillColor=none;align=center;verticalAlign=middle;whiteSpace=wrap;rounded=0;shadow=1;fontStyle=1" vertex="1" parent="1"><mxGeometry x="660" y="410" width="60" height="22" as="geometry"/></mxCell><mxCell id="51" value="Persona" style="swimlane;fontStyle=0;childLayout=stackLayout;horizontal=1;startSize=30;horizontalStack=0;resizeParent=1;resizeParentMax=0;resizeLast=0;collapsible=1;marginBottom=0;whiteSpace=wrap;html=1;shadow=1;rounded=0;" vertex="1" parent="1"><mxGeometry x="700" y="800" width="220" height="300" as="geometry"><mxRectangle x="270" y="330" width="60" height="30" as="alternateBounds"/></mxGeometry></mxCell><mxCell id="52" value="idPersona varchar (11)" style="text;strokeColor=none;fillColor=none;align=left;verticalAlign=middle;spacingLeft=4;spacingRight=4;overflow=hidden;points=[[0,0.5],[1,0.5]];portConstraint=eastwest;rotatable=0;whiteSpace=wrap;html=1;shadow=1;rounded=0;" vertex="1" parent="51"><mxGeometry y="30" width="220" height="30" as="geometry"/></mxCell><mxCell id="53" value="nombrePersona varchar (30)" style="text;strokeColor=none;fillColor=none;align=left;verticalAlign=middle;spacingLeft=4;spacingRight=4;overflow=hidden;points=[[0,0.5],[1,0.5]];portConstraint=eastwest;rotatable=0;whiteSpace=wrap;html=1;shadow=1;rounded=0;" vertex="1" parent="51"><mxGeometry y="60" width="220" height="30" as="geometry"/></mxCell><mxCell id="57" value="apellidoPersona varchar (30)" style="text;strokeColor=none;fillColor=none;align=left;verticalAlign=middle;spacingLeft=4;spacingRight=4;overflow=hidden;points=[[0,0.5],[1,0.5]];portConstraint=eastwest;rotatable=0;whiteSpace=wrap;html=1;shadow=1;rounded=0;" vertex="1" parent="51"><mxGeometry y="90" width="220" height="30" as="geometry"/></mxCell><mxCell id="54" value="direccionPersona varchar(255)" style="text;strokeColor=none;fillColor=none;align=left;verticalAlign=middle;spacingLeft=4;spacingRight=4;overflow=hidden;points=[[0,0.5],[1,0.5]];portConstraint=eastwest;rotatable=0;whiteSpace=wrap;html=1;shadow=1;rounded=0;" vertex="1" parent="51"><mxGeometry y="120" width="220" height="30" as="geometry"/></mxCell><mxCell id="58" value="telefono varchar(20)" style="text;strokeColor=none;fillColor=none;align=left;verticalAlign=middle;spacingLeft=4;spacingRight=4;overflow=hidden;points=[[0,0.5],[1,0.5]];portConstraint=eastwest;rotatable=0;whiteSpace=wrap;html=1;shadow=1;rounded=0;" vertex="1" parent="51"><mxGeometry y="150" width="220" height="30" as="geometry"/></mxCell><mxCell id="59" value="email varchar(100)" style="text;strokeColor=none;fillColor=none;align=left;verticalAlign=middle;spacingLeft=4;spacingRight=4;overflow=hidden;points=[[0,0.5],[1,0.5]];portConstraint=eastwest;rotatable=0;whiteSpace=wrap;html=1;shadow=1;rounded=0;" vertex="1" parent="51"><mxGeometry y="180" width="220" height="30" as="geometry"/></mxCell><mxCell id="69" value="idContactoPersona_fk varchar(11)" style="text;strokeColor=none;fillColor=none;align=left;verticalAlign=middle;spacingLeft=4;spacingRight=4;overflow=hidden;points=[[0,0.5],[1,0.5]];portConstraint=eastwest;rotatable=0;whiteSpace=wrap;html=1;shadow=1;rounded=0;" vertex="1" parent="51"><mxGeometry y="210" width="220" height="30" as="geometry"/></mxCell><mxCell id="68" value="idEps_fk int(10)" style="text;strokeColor=none;fillColor=none;align=left;verticalAlign=middle;spacingLeft=4;spacingRight=4;overflow=hidden;points=[[0,0.5],[1,0.5]];portConstraint=eastwest;rotatable=0;whiteSpace=wrap;html=1;shadow=1;rounded=0;" vertex="1" parent="51"><mxGeometry y="240" width="220" height="30" as="geometry"/></mxCell><mxCell id="55" value="idPais_fk varchar(10)" style="text;strokeColor=none;fillColor=none;align=left;verticalAlign=middle;spacingLeft=4;spacingRight=4;overflow=hidden;points=[[0,0.5],[1,0.5]];portConstraint=eastwest;rotatable=0;whiteSpace=wrap;html=1;shadow=1;rounded=0;" vertex="1" parent="51"><mxGeometry y="270" width="220" height="30" as="geometry"/></mxCell><mxCell id="70" value="Eps" style="swimlane;fontStyle=0;childLayout=stackLayout;horizontal=1;startSize=30;horizontalStack=0;resizeParent=1;resizeParentMax=0;resizeLast=0;collapsible=1;marginBottom=0;whiteSpace=wrap;html=1;shadow=1;rounded=0;" vertex="1" parent="1"><mxGeometry x="330" y="980" width="220" height="180" as="geometry"><mxRectangle x="270" y="330" width="60" height="30" as="alternateBounds"/></mxGeometry></mxCell><mxCell id="71" value="idEps int (10)" style="text;strokeColor=none;fillColor=none;align=left;verticalAlign=middle;spacingLeft=4;spacingRight=4;overflow=hidden;points=[[0,0.5],[1,0.5]];portConstraint=eastwest;rotatable=0;whiteSpace=wrap;html=1;shadow=1;rounded=0;" vertex="1" parent="70"><mxGeometry y="30" width="220" height="30" as="geometry"/></mxCell><mxCell id="72" value="nombreEps varchar (30)" style="text;strokeColor=none;fillColor=none;align=left;verticalAlign=middle;spacingLeft=4;spacingRight=4;overflow=hidden;points=[[0,0.5],[1,0.5]];portConstraint=eastwest;rotatable=0;whiteSpace=wrap;html=1;shadow=1;rounded=0;" vertex="1" parent="70"><mxGeometry y="60" width="220" height="30" as="geometry"/></mxCell><mxCell id="74" value="direccionEps varchar(255)" style="text;strokeColor=none;fillColor=none;align=left;verticalAlign=middle;spacingLeft=4;spacingRight=4;overflow=hidden;points=[[0,0.5],[1,0.5]];portConstraint=eastwest;rotatable=0;whiteSpace=wrap;html=1;shadow=1;rounded=0;" vertex="1" parent="70"><mxGeometry y="90" width="220" height="30" as="geometry"/></mxCell><mxCell id="75" value="telefonoEps varchar(20)" style="text;strokeColor=none;fillColor=none;align=left;verticalAlign=middle;spacingLeft=4;spacingRight=4;overflow=hidden;points=[[0,0.5],[1,0.5]];portConstraint=eastwest;rotatable=0;whiteSpace=wrap;html=1;shadow=1;rounded=0;" vertex="1" parent="70"><mxGeometry y="120" width="220" height="30" as="geometry"/></mxCell><mxCell id="76" value="emailEps varchar(100)" style="text;strokeColor=none;fillColor=none;align=left;verticalAlign=middle;spacingLeft=4;spacingRight=4;overflow=hidden;points=[[0,0.5],[1,0.5]];portConstraint=eastwest;rotatable=0;whiteSpace=wrap;html=1;shadow=1;rounded=0;" vertex="1" parent="70"><mxGeometry y="150" width="220" height="30" as="geometry"/></mxCell></root></mxGraphModel></diagram></mxfile>